# WaveFront *.obj file (generated by Autodesk ATF)

mtllib d4f56d03-cabc-4792-9f0e-50a1fa927c32.mtl

g Body1

v 192.000000 -3.000000 3.000000
v 182.000000 -3.000000 3.000000
v 182.000000 -3.000000 1.000000
v 192.000000 -3.000000 1.000000
v 182.000000 -13.000000 3.000000
v 182.000000 -13.000000 1.000000
v 192.000000 -13.000000 3.000000
v 192.000000 -13.000000 1.000000
v 18.000000 -13.000000 3.000000
v 18.000000 -3.000000 3.000000
v 18.000000 -3.000000 1.000000
v 18.000000 -13.000000 1.000000
v 8.000000 -3.000000 3.000000
v 8.000000 -3.000000 1.000000
v 8.000000 -13.000000 3.000000
v 8.000000 -13.000000 1.000000
v 8.000000 -3.000000 197.000000
v 18.000000 -3.000000 197.000000
v 18.000000 -3.000000 199.000000
v 8.000000 -3.000000 199.000000
v 18.000000 -13.000000 197.000000
v 18.000000 -13.000000 199.000000
v 8.000000 -13.000000 197.000000
v 8.000000 -13.000000 199.000000
v 182.000000 -13.000000 197.000000
v 182.000000 -3.000000 197.000000
v 182.000000 -3.000000 199.000000
v 182.000000 -13.000000 199.000000
v 192.000000 -3.000000 197.000000
v 192.000000 -3.000000 199.000000
v 192.000000 -13.000000 197.000000
v 192.000000 -13.000000 199.000000
v 3.000000 -13.000000 182.000000
v 3.000000 -3.000000 182.000000
v 1.000000 -3.000000 182.000000
v 1.000000 -13.000000 182.000000
v 3.000000 -3.000000 192.000000
v 1.000000 -3.000000 192.000000
v 3.000000 -13.000000 192.000000
v 1.000000 -13.000000 192.000000
v 3.000000 -13.000000 8.000000
v 3.000000 -3.000000 8.000000
v 1.000000 -3.000000 8.000000
v 1.000000 -13.000000 8.000000
v 3.000000 -3.000000 18.000000
v 1.000000 -3.000000 18.000000
v 3.000000 -13.000000 18.000000
v 1.000000 -13.000000 18.000000
v 197.000000 -3.000000 182.000000
v 197.000000 -13.000000 182.000000
v 199.000000 -13.000000 182.000000
v 199.000000 -3.000000 182.000000
v 197.000000 -13.000000 192.000000
v 199.000000 -13.000000 192.000000
v 197.000000 -3.000000 192.000000
v 199.000000 -3.000000 192.000000
v 197.000000 -13.000000 18.000000
v 197.000000 -3.000000 18.000000
v 199.000000 -3.000000 18.000000
v 199.000000 -13.000000 18.000000
v 197.000000 -3.000000 8.000000
v 199.000000 -3.000000 8.000000
v 197.000000 -13.000000 8.000000
v 199.000000 -13.000000 8.000000
v 3.000000 0.000000 3.000000
v 3.000000 0.000000 197.000000
v 3.000000 -15.000000 197.000000
v 3.000000 -15.000000 3.000000
v 197.000000 0.000000 3.000000
v 197.000000 -15.000000 3.000000
v 197.000000 0.000000 197.000000
v 197.000000 -15.000000 197.000000
v 200.000000 -15.000000 0.000000
v 200.000000 -15.000000 200.000000
v 0.000000 -15.000000 200.000000
v 0.000000 -15.000000 0.000000
v 0.000000 2.000000 200.000000
v 0.000000 2.000000 0.000000
v 200.000000 2.000000 0.000000
v 200.000000 2.000000 200.000000
vt -1.000000 0.000000 0.000000
vt -0.000000 0.000000 0.000000
vt -1.000000 0.200000 0.000000
vt -0.000000 0.200000 0.000000
vt -1.000000 0.000000 0.000000
vt -0.000000 0.000000 0.000000
vt -1.000000 0.200000 0.000000
vt -0.000000 0.200000 0.000000
vt -1.000000 -0.000000 0.000000
vt -0.000000 -0.000000 0.000000
vt -1.000000 0.200000 0.000000
vt 0.000000 0.200000 0.000000
vt -1.000000 0.000000 0.000000
vt 0.000000 0.000000 0.000000
vt -1.000000 0.200000 0.000000
vt -0.000000 0.200000 0.000000
vt 0.500000 0.500000 0.000000
vt -0.500000 0.500000 0.000000
vt 0.500000 -0.500000 0.000000
vt -0.500000 -0.500000 0.000000
vt -1.000000 0.000000 0.000000
vt -0.000000 0.000000 0.000000
vt -1.000000 0.200000 0.000000
vt -0.000000 0.200000 0.000000
vt -1.000000 0.000000 0.000000
vt -0.000000 0.000000 0.000000
vt -1.000000 0.200000 0.000000
vt -0.000000 0.200000 0.000000
vt -1.000000 0.000000 0.000000
vt -0.000000 0.000000 0.000000
vt -1.000000 0.200000 0.000000
vt -0.000000 0.200000 0.000000
vt -1.000000 -0.000000 0.000000
vt -0.000000 0.000000 0.000000
vt -1.000000 0.200000 0.000000
vt 0.000000 0.200000 0.000000
vt -0.500000 -0.500000 0.000000
vt 0.500000 -0.500000 0.000000
vt -0.500000 0.500000 0.000000
vt 0.500000 0.500000 0.000000
vt -1.000000 0.000000 0.000000
vt 0.000000 0.000000 0.000000
vt -1.000000 0.200000 0.000000
vt 0.000000 0.200000 0.000000
vt -1.000000 0.000000 0.000000
vt -0.000000 0.000000 0.000000
vt -1.000000 0.200000 0.000000
vt -0.000000 0.200000 0.000000
vt -1.000000 0.000000 0.000000
vt -0.000000 0.000000 0.000000
vt -1.000000 0.200000 0.000000
vt -0.000000 0.200000 0.000000
vt -1.000000 0.000000 0.000000
vt 0.000000 0.000000 0.000000
vt -1.000000 0.200000 0.000000
vt 0.000000 0.200000 0.000000
vt 0.500000 0.500000 0.000000
vt -0.500000 0.500000 0.000000
vt 0.500000 -0.500000 0.000000
vt -0.500000 -0.500000 0.000000
vt -1.000000 0.000000 0.000000
vt -0.000000 0.000000 0.000000
vt -1.000000 0.200000 0.000000
vt -0.000000 0.200000 0.000000
vt -1.000000 0.000000 0.000000
vt -0.000000 0.000000 0.000000
vt -1.000000 0.200000 0.000000
vt -0.000000 0.200000 0.000000
vt -1.000000 0.000000 0.000000
vt -0.000000 0.000000 0.000000
vt -1.000000 0.200000 0.000000
vt -0.000000 0.200000 0.000000
vt -1.000000 0.000000 0.000000
vt -0.000000 0.000000 0.000000
vt -1.000000 0.200000 0.000000
vt -0.000000 0.200000 0.000000
vt -0.500000 -0.500000 0.000000
vt 0.500000 -0.500000 0.000000
vt -0.500000 0.500000 0.000000
vt 0.500000 0.500000 0.000000
vt -1.000000 0.000000 0.000000
vt -0.000000 0.000000 0.000000
vt -1.000000 0.200000 0.000000
vt -0.000000 0.200000 0.000000
vt -1.000000 0.000000 0.000000
vt -0.000000 0.000000 0.000000
vt -1.000000 0.200000 0.000000
vt -0.000000 0.200000 0.000000
vt -1.000000 0.000000 0.000000
vt -0.000000 0.000000 0.000000
vt -1.000000 0.200000 0.000000
vt -0.000000 0.200000 0.000000
vt -1.000000 0.000000 0.000000
vt -0.000000 0.000000 0.000000
vt -1.000000 0.200000 0.000000
vt -0.000000 0.200000 0.000000
vt -0.500000 -0.500000 0.000000
vt 0.500000 -0.500000 0.000000
vt -0.500000 0.500000 0.000000
vt 0.500000 0.500000 0.000000
vt -1.000000 0.000000 0.000000
vt -0.000000 0.000000 0.000000
vt -1.000000 0.200000 0.000000
vt -0.000000 0.200000 0.000000
vt -1.000000 0.000000 0.000000
vt -0.000000 0.000000 0.000000
vt -1.000000 0.200000 0.000000
vt -0.000000 0.200000 0.000000
vt -1.000000 0.000000 0.000000
vt -0.000000 0.000000 0.000000
vt -1.000000 0.200000 0.000000
vt -0.000000 0.200000 0.000000
vt -1.000000 0.000000 0.000000
vt -0.000000 0.000000 0.000000
vt -1.000000 0.200000 0.000000
vt -0.000000 0.200000 0.000000
vt -0.500000 -0.500000 0.000000
vt 0.500000 -0.500000 0.000000
vt -0.500000 0.500000 0.000000
vt 0.500000 0.500000 0.000000
vt -1.000000 0.000000 0.000000
vt -0.000000 0.000000 0.000000
vt -1.000000 0.200000 0.000000
vt -0.000000 0.200000 0.000000
vt -1.000000 0.000000 0.000000
vt -0.000000 0.000000 0.000000
vt -1.000000 0.200000 0.000000
vt -0.000000 0.200000 0.000000
vt -1.000000 0.000000 0.000000
vt -0.000000 0.000000 0.000000
vt -1.000000 0.200000 0.000000
vt -0.000000 0.200000 0.000000
vt -1.000000 0.000000 0.000000
vt -0.000000 0.000000 0.000000
vt -1.000000 0.200000 0.000000
vt -0.000000 0.200000 0.000000
vt 0.500000 0.500000 0.000000
vt -0.500000 0.500000 0.000000
vt 0.500000 -0.500000 0.000000
vt -0.500000 -0.500000 0.000000
vt -1.000000 0.000000 0.000000
vt -0.000000 0.000000 0.000000
vt -1.000000 0.200000 0.000000
vt -0.000000 0.200000 0.000000
vt -1.000000 0.000000 0.000000
vt -0.000000 0.000000 0.000000
vt -1.000000 0.200000 0.000000
vt -0.000000 0.200000 0.000000
vt -1.000000 0.000000 0.000000
vt -0.000000 0.000000 0.000000
vt -1.000000 0.200000 0.000000
vt -0.000000 0.200000 0.000000
vt -1.000000 0.000000 0.000000
vt -0.000000 0.000000 0.000000
vt -1.000000 0.200000 0.000000
vt -0.000000 0.200000 0.000000
vt -0.500000 -0.500000 0.000000
vt 0.500000 -0.500000 0.000000
vt -0.500000 0.500000 0.000000
vt 0.500000 0.500000 0.000000
vt 17.900000 1.300000 0.000000
vt 1.500000 0.300000 0.000000
vt 17.900000 0.300000 0.000000
vt 0.000000 0.000000 0.000000
vt 19.400000 0.000000 0.000000
vt 18.900000 1.300000 0.000000
vt 19.400000 1.500000 0.000000
vt 1.500000 1.300000 0.000000
vt 18.900000 0.300000 0.000000
vt 0.500000 1.300000 0.000000
vt 0.000000 1.500000 0.000000
vt 0.500000 0.300000 0.000000
vt 0.500000 0.300000 0.000000
vt 0.000000 0.000000 0.000000
vt 1.500000 0.300000 0.000000
vt 19.400000 0.000000 0.000000
vt 17.900000 0.300000 0.000000
vt 18.900000 0.300000 0.000000
vt 19.400000 1.500000 0.000000
vt 18.900000 1.300000 0.000000
vt 17.900000 1.300000 0.000000
vt 0.000000 1.500000 0.000000
vt 1.500000 1.300000 0.000000
vt 0.500000 1.300000 0.000000
vt 1.500000 0.300000 0.000000
vt 17.900000 0.300000 0.000000
vt 1.500000 1.300000 0.000000
vt 17.900000 1.300000 0.000000
vt -0.000000 1.500000 0.000000
vt 19.400000 1.500000 0.000000
vt 18.900000 1.300000 0.000000
vt 18.900000 0.300000 0.000000
vt 0.500000 0.300000 0.000000
vt 0.000000 0.000000 0.000000
vt 19.400000 -0.000000 0.000000
vt 0.500000 1.300000 0.000000
vt 0.500000 0.300000 0.000000
vt 0.000000 0.000000 0.000000
vt 1.500000 0.300000 0.000000
vt 19.400000 0.000000 0.000000
vt 17.900000 0.300000 0.000000
vt 18.900000 0.300000 0.000000
vt 19.400000 1.500000 0.000000
vt 18.900000 1.300000 0.000000
vt 17.900000 1.300000 0.000000
vt 0.000000 1.500000 0.000000
vt 1.500000 1.300000 0.000000
vt 0.500000 1.300000 0.000000
vt -9.700000 9.700000 0.000000
vt -10.000000 -10.000000 0.000000
vt -9.700000 -9.700000 0.000000
vt 10.000000 -10.000000 0.000000
vt 9.700000 -9.700000 0.000000
vt 9.700000 9.700000 0.000000
vt 10.000000 10.000000 0.000000
vt -10.000000 10.000000 0.000000
vt 20.000000 0.200000 0.000000
vt 0.000000 0.200000 0.000000
vt 20.000000 -1.500000 0.000000
vt 0.000000 -1.500000 0.000000
vt 20.000000 0.200000 0.000000
vt -0.000000 0.200000 0.000000
vt 20.000000 -1.500000 0.000000
vt 0.000000 -1.500000 0.000000
vt 20.000000 0.200000 0.000000
vt -0.000000 0.200000 0.000000
vt 20.000000 -1.500000 0.000000
vt 0.000000 -1.500000 0.000000
vt 20.000000 0.200000 0.000000
vt 0.000000 0.200000 0.000000
vt 20.000000 -1.500000 0.000000
vt 0.000000 -1.500000 0.000000
vt 10.000000 10.000000 0.000000
vt -10.000000 10.000000 0.000000
vt 10.000000 -10.000000 0.000000
vt -10.000000 -10.000000 0.000000
vt 9.700000 9.700000 0.000000
vt -9.700000 9.700000 0.000000
vt 9.700000 -9.700000 0.000000
vt -9.700000 -9.700000 0.000000
vn 0.000000 -0.100000 0.000000
vn 0.000000 -0.100000 0.000000
vn 0.000000 -0.100000 0.000000
vn 0.000000 -0.100000 0.000000
vn 0.100000 0.000000 0.000000
vn 0.100000 0.000000 0.000000
vn 0.100000 0.000000 0.000000
vn 0.100000 0.000000 0.000000
vn -0.000000 0.100000 -0.000000
vn -0.000000 0.100000 -0.000000
vn -0.000000 0.100000 -0.000000
vn -0.000000 0.100000 -0.000000
vn -0.100000 0.000000 -0.000000
vn -0.100000 0.000000 -0.000000
vn -0.100000 0.000000 -0.000000
vn -0.100000 0.000000 -0.000000
vn 0.000000 0.000000 0.100000
vn 0.000000 0.000000 0.100000
vn 0.000000 0.000000 0.100000
vn 0.000000 0.000000 0.100000
vn -0.100000 0.000000 0.000000
vn -0.100000 0.000000 0.000000
vn -0.100000 0.000000 0.000000
vn -0.100000 0.000000 0.000000
vn 0.000000 -0.100000 0.000000
vn 0.000000 -0.100000 0.000000
vn 0.000000 -0.100000 0.000000
vn 0.000000 -0.100000 0.000000
vn 0.100000 0.000000 0.000000
vn 0.100000 0.000000 0.000000
vn 0.100000 0.000000 0.000000
vn 0.100000 0.000000 0.000000
vn 0.000000 0.100000 0.000000
vn 0.000000 0.100000 0.000000
vn 0.000000 0.100000 0.000000
vn 0.000000 0.100000 0.000000
vn 0.000000 0.000000 0.100000
vn 0.000000 0.000000 0.100000
vn 0.000000 0.000000 0.100000
vn 0.000000 0.000000 0.100000
vn 0.000000 -0.100000 0.000000
vn 0.000000 -0.100000 0.000000
vn 0.000000 -0.100000 0.000000
vn 0.000000 -0.100000 0.000000
vn -0.100000 0.000000 0.000000
vn -0.100000 0.000000 0.000000
vn -0.100000 0.000000 0.000000
vn -0.100000 0.000000 0.000000
vn -0.000000 0.100000 -0.000000
vn -0.000000 0.100000 -0.000000
vn -0.000000 0.100000 -0.000000
vn -0.000000 0.100000 -0.000000
vn 0.100000 0.000000 0.000000
vn 0.100000 0.000000 0.000000
vn 0.100000 0.000000 0.000000
vn 0.100000 0.000000 0.000000
vn 0.000000 0.000000 -0.100000
vn 0.000000 0.000000 -0.100000
vn 0.000000 0.000000 -0.100000
vn 0.000000 0.000000 -0.100000
vn 0.100000 0.000000 0.000000
vn 0.100000 0.000000 0.000000
vn 0.100000 0.000000 0.000000
vn 0.100000 0.000000 0.000000
vn 0.000000 -0.100000 0.000000
vn 0.000000 -0.100000 0.000000
vn 0.000000 -0.100000 0.000000
vn 0.000000 -0.100000 0.000000
vn -0.100000 0.000000 0.000000
vn -0.100000 0.000000 0.000000
vn -0.100000 0.000000 0.000000
vn -0.100000 0.000000 0.000000
vn -0.000000 0.100000 -0.000000
vn -0.000000 0.100000 -0.000000
vn -0.000000 0.100000 -0.000000
vn -0.000000 0.100000 -0.000000
vn 0.000000 0.000000 -0.100000
vn 0.000000 0.000000 -0.100000
vn 0.000000 0.000000 -0.100000
vn 0.000000 0.000000 -0.100000
vn 0.000000 0.000000 0.100000
vn 0.000000 0.000000 0.100000
vn 0.000000 0.000000 0.100000
vn 0.000000 0.000000 0.100000
vn 0.000000 -0.100000 0.000000
vn 0.000000 -0.100000 0.000000
vn 0.000000 -0.100000 0.000000
vn 0.000000 -0.100000 0.000000
vn -0.000000 0.000000 -0.100000
vn -0.000000 0.000000 -0.100000
vn -0.000000 0.000000 -0.100000
vn -0.000000 0.000000 -0.100000
vn -0.000000 0.100000 -0.000000
vn -0.000000 0.100000 -0.000000
vn -0.000000 0.100000 -0.000000
vn -0.000000 0.100000 -0.000000
vn 0.100000 0.000000 0.000000
vn 0.100000 0.000000 0.000000
vn 0.100000 0.000000 0.000000
vn 0.100000 0.000000 0.000000
vn 0.000000 0.000000 0.100000
vn 0.000000 0.000000 0.100000
vn 0.000000 0.000000 0.100000
vn 0.000000 0.000000 0.100000
vn 0.000000 -0.100000 0.000000
vn 0.000000 -0.100000 0.000000
vn 0.000000 -0.100000 0.000000
vn 0.000000 -0.100000 0.000000
vn -0.000000 0.000000 -0.100000
vn -0.000000 0.000000 -0.100000
vn -0.000000 0.000000 -0.100000
vn -0.000000 0.000000 -0.100000
vn -0.000000 0.100000 -0.000000
vn -0.000000 0.100000 -0.000000
vn -0.000000 0.100000 -0.000000
vn -0.000000 0.100000 -0.000000
vn 0.100000 0.000000 0.000000
vn 0.100000 0.000000 0.000000
vn 0.100000 0.000000 0.000000
vn 0.100000 0.000000 0.000000
vn 0.000000 0.000000 0.100000
vn 0.000000 0.000000 0.100000
vn 0.000000 0.000000 0.100000
vn 0.000000 0.000000 0.100000
vn -0.000000 0.100000 -0.000000
vn -0.000000 0.100000 -0.000000
vn -0.000000 0.100000 -0.000000
vn -0.000000 0.100000 -0.000000
vn 0.000000 0.000000 -0.100000
vn 0.000000 0.000000 -0.100000
vn 0.000000 0.000000 -0.100000
vn 0.000000 0.000000 -0.100000
vn 0.000000 -0.100000 0.000000
vn 0.000000 -0.100000 0.000000
vn 0.000000 -0.100000 0.000000
vn 0.000000 -0.100000 0.000000
vn -0.100000 0.000000 0.000000
vn -0.100000 0.000000 0.000000
vn -0.100000 0.000000 0.000000
vn -0.100000 0.000000 0.000000
vn 0.000000 0.000000 -0.100000
vn 0.000000 0.000000 -0.100000
vn 0.000000 0.000000 -0.100000
vn 0.000000 0.000000 -0.100000
vn 0.000000 -0.100000 0.000000
vn 0.000000 -0.100000 0.000000
vn 0.000000 -0.100000 0.000000
vn 0.000000 -0.100000 0.000000
vn 0.000000 0.000000 0.100000
vn 0.000000 0.000000 0.100000
vn 0.000000 0.000000 0.100000
vn 0.000000 0.000000 0.100000
vn -0.000000 0.100000 -0.000000
vn -0.000000 0.100000 -0.000000
vn -0.000000 0.100000 -0.000000
vn -0.000000 0.100000 -0.000000
vn -0.100000 0.000000 0.000000
vn -0.100000 0.000000 0.000000
vn -0.100000 0.000000 0.000000
vn -0.100000 0.000000 0.000000
vn 0.100000 0.000000 0.000000
vn 0.100000 0.000000 0.000000
vn 0.100000 0.000000 0.000000
vn 0.100000 0.000000 0.000000
vn 0.100000 0.000000 0.000000
vn 0.100000 0.000000 0.000000
vn 0.100000 0.000000 0.000000
vn 0.100000 0.000000 0.000000
vn 0.100000 0.000000 0.000000
vn 0.100000 0.000000 0.000000
vn 0.100000 0.000000 0.000000
vn 0.100000 0.000000 0.000000
vn 0.000000 0.000000 0.100000
vn 0.000000 0.000000 0.100000
vn 0.000000 0.000000 0.100000
vn 0.000000 0.000000 0.100000
vn 0.000000 0.000000 0.100000
vn 0.000000 0.000000 0.100000
vn 0.000000 0.000000 0.100000
vn 0.000000 0.000000 0.100000
vn 0.000000 0.000000 0.100000
vn 0.000000 0.000000 0.100000
vn 0.000000 0.000000 0.100000
vn 0.000000 0.000000 0.100000
vn -0.100000 0.000000 0.000000
vn -0.100000 0.000000 0.000000
vn -0.100000 0.000000 0.000000
vn -0.100000 0.000000 0.000000
vn -0.100000 0.000000 0.000000
vn -0.100000 0.000000 0.000000
vn -0.100000 0.000000 0.000000
vn -0.100000 0.000000 0.000000
vn -0.100000 0.000000 0.000000
vn -0.100000 0.000000 0.000000
vn -0.100000 0.000000 0.000000
vn -0.100000 0.000000 0.000000
vn 0.000000 0.000000 -0.100000
vn 0.000000 0.000000 -0.100000
vn 0.000000 0.000000 -0.100000
vn 0.000000 0.000000 -0.100000
vn 0.000000 0.000000 -0.100000
vn 0.000000 0.000000 -0.100000
vn 0.000000 0.000000 -0.100000
vn 0.000000 0.000000 -0.100000
vn 0.000000 0.000000 -0.100000
vn 0.000000 0.000000 -0.100000
vn 0.000000 0.000000 -0.100000
vn 0.000000 0.000000 -0.100000
vn 0.000000 -0.100000 0.000000
vn 0.000000 -0.100000 0.000000
vn 0.000000 -0.100000 0.000000
vn 0.000000 -0.100000 0.000000
vn 0.000000 -0.100000 0.000000
vn 0.000000 -0.100000 0.000000
vn 0.000000 -0.100000 0.000000
vn 0.000000 -0.100000 0.000000
vn -0.100000 0.000000 0.000000
vn -0.100000 0.000000 0.000000
vn -0.100000 0.000000 0.000000
vn -0.100000 0.000000 0.000000
vn 0.000000 0.000000 -0.100000
vn 0.000000 0.000000 -0.100000
vn 0.000000 0.000000 -0.100000
vn 0.000000 0.000000 -0.100000
vn 0.100000 0.000000 0.000000
vn 0.100000 0.000000 0.000000
vn 0.100000 0.000000 0.000000
vn 0.100000 0.000000 0.000000
vn 0.000000 -0.000000 0.100000
vn 0.000000 -0.000000 0.100000
vn 0.000000 -0.000000 0.100000
vn 0.000000 -0.000000 0.100000
vn 0.000000 0.100000 0.000000
vn 0.000000 0.100000 0.000000
vn 0.000000 0.100000 0.000000
vn 0.000000 0.100000 0.000000
vn 0.000000 -0.100000 0.000000
vn 0.000000 -0.100000 0.000000
vn 0.000000 -0.100000 0.000000
vn 0.000000 -0.100000 0.000000
usemtl Paint_-_Enamel_Glossy_(White)
f 1/1/1 2/2/2 4/3/3
f 4/3/3 2/2/2 3/4/4
f 2/5/5 5/6/6 3/7/7
f 3/7/7 5/6/6 6/8/8
f 5/9/9 7/10/10 6/11/11
f 6/11/11 7/10/10 8/12/12
f 7/13/13 1/14/14 8/15/15
f 8/15/15 1/14/14 4/16/16
f 4/17/17 3/18/18 8/19/19
f 8/19/19 3/18/18 6/20/20
f 9/21/21 10/22/22 12/23/23
f 12/23/23 10/22/22 11/24/24
f 10/25/25 13/26/26 11/27/27
f 11/27/27 13/26/26 14/28/28
f 13/29/29 15/30/30 14/31/31
f 14/31/31 15/30/30 16/32/32
f 15/33/33 9/34/34 16/35/35
f 16/35/35 9/34/34 12/36/36
f 16/37/37 12/38/38 14/39/39
f 14/39/39 12/38/38 11/40/40
f 17/41/41 18/42/42 20/43/43
f 20/43/43 18/42/42 19/44/44
f 18/45/45 21/46/46 19/47/47
f 19/47/47 21/46/46 22/48/48
f 21/49/49 23/50/50 22/51/51
f 22/51/51 23/50/50 24/52/52
f 23/53/53 17/54/54 24/55/55
f 24/55/55 17/54/54 20/56/56
f 20/57/57 19/58/58 24/59/59
f 24/59/59 19/58/58 22/60/60
f 25/61/61 26/62/62 28/63/63
f 28/63/63 26/62/62 27/64/64
f 26/65/65 29/66/66 27/67/67
f 27/67/67 29/66/66 30/68/68
f 29/69/69 31/70/70 30/71/71
f 30/71/71 31/70/70 32/72/72
f 31/73/73 25/74/74 32/75/75
f 32/75/75 25/74/74 28/76/76
f 32/77/77 28/78/78 30/79/79
f 30/79/79 28/78/78 27/80/80
f 33/81/81 34/82/82 36/83/83
f 36/83/83 34/82/82 35/84/84
f 34/85/85 37/86/86 35/87/87
f 35/87/87 37/86/86 38/88/88
f 37/89/89 39/90/90 38/91/91
f 38/91/91 39/90/90 40/92/92
f 39/93/93 33/94/94 40/95/95
f 40/95/95 33/94/94 36/96/96
f 40/97/97 36/98/98 38/99/99
f 38/99/99 36/98/98 35/100/100
f 41/101/101 42/102/102 44/103/103
f 44/103/103 42/102/102 43/104/104
f 42/105/105 45/106/106 43/107/107
f 43/107/107 45/106/106 46/108/108
f 45/109/109 47/110/110 46/111/111
f 46/111/111 47/110/110 48/112/112
f 47/113/113 41/114/114 48/115/115
f 48/115/115 41/114/114 44/116/116
f 48/117/117 44/118/118 46/119/119
f 46/119/119 44/118/118 43/120/120
f 49/121/121 50/122/122 52/123/123
f 52/123/123 50/122/122 51/124/124
f 50/125/125 53/126/126 51/127/127
f 51/127/127 53/126/126 54/128/128
f 53/129/129 55/130/130 54/131/131
f 54/131/131 55/130/130 56/132/132
f 55/133/133 49/134/134 56/135/135
f 56/135/135 49/134/134 52/136/136
f 56/137/137 52/138/138 54/139/139
f 54/139/139 52/138/138 51/140/140
f 57/141/141 58/142/142 60/143/143
f 60/143/143 58/142/142 59/144/144
f 58/145/145 61/146/146 59/147/147
f 59/147/147 61/146/146 62/148/148
f 61/149/149 63/150/150 62/151/151
f 62/151/151 63/150/150 64/152/152
f 63/153/153 57/154/154 64/155/155
f 64/155/155 57/154/154 60/156/156
f 64/157/157 60/158/158 62/159/159
f 62/159/159 60/158/158 59/160/160
f 33/161/161 45/162/162 34/163/163
f 34/163/163 45/162/162 65/164/164
f 34/163/163 65/164/164 66/165/165
f 39/166/166 67/167/167 33/161/161
f 33/161/161 67/167/167 47/168/168
f 33/161/161 47/168/168 45/162/162
f 39/166/166 37/169/169 67/167/167
f 67/167/167 37/169/169 66/165/165
f 66/165/165 37/169/169 34/163/163
f 41/170/170 68/171/171 42/172/172
f 42/172/172 68/171/171 65/164/164
f 42/172/172 65/164/164 45/162/162
f 41/170/170 47/168/168 68/171/171
f 68/171/171 47/168/168 67/167/167
f 1/173/173 69/174/174 2/175/175
f 2/175/175 69/174/174 65/176/176
f 2/175/175 65/176/176 10/177/177
f 10/177/177 65/176/176 13/178/178
f 13/178/178 65/176/176 68/179/179
f 13/178/178 68/179/179 15/180/180
f 15/180/180 68/179/179 9/181/181
f 9/181/181 68/179/179 70/182/182
f 9/181/181 70/182/182 5/183/183
f 5/183/183 70/182/182 7/184/184
f 7/184/184 70/182/182 1/173/173
f 1/173/173 70/182/182 69/174/174
f 9/181/181 5/183/183 10/177/177
f 10/177/177 5/183/183 2/175/175
f 49/185/185 58/186/186 50/187/187
f 50/187/187 58/186/186 57/188/188
f 50/187/187 57/188/188 72/189/189
f 72/189/189 57/188/188 70/190/190
f 70/190/190 57/188/188 63/191/191
f 70/190/190 63/191/191 61/192/192
f 55/193/193 71/194/194 49/185/185
f 49/185/185 71/194/194 69/195/195
f 49/185/185 69/195/195 58/186/186
f 58/186/186 69/195/195 61/192/192
f 61/192/192 69/195/195 70/190/190
f 71/194/194 55/193/193 72/189/189
f 72/189/189 55/193/193 53/196/196
f 72/189/189 53/196/196 50/187/187
f 17/197/197 66/198/198 18/199/199
f 18/199/199 66/198/198 71/200/200
f 18/199/199 71/200/200 26/201/201
f 26/201/201 71/200/200 29/202/202
f 29/202/202 71/200/200 72/203/203
f 29/202/202 72/203/203 31/204/204
f 31/204/204 72/203/203 25/205/205
f 25/205/205 72/203/203 67/206/206
f 25/205/205 67/206/206 21/207/207
f 21/207/207 67/206/206 23/208/208
f 23/208/208 67/206/206 17/197/197
f 17/197/197 67/206/206 66/198/198
f 25/205/205 21/207/207 26/201/201
f 26/201/201 21/207/207 18/199/199
f 72/209/209 75/210/210 67/211/211
f 67/211/211 75/210/210 76/212/212
f 67/211/211 76/212/212 68/213/213
f 68/213/213 76/212/212 70/214/214
f 70/214/214 76/212/212 73/215/215
f 70/214/214 73/215/215 74/216/216
f 75/210/210 72/209/209 74/216/216
f 74/216/216 72/209/209 70/214/214
f 77/217/217 78/218/218 75/219/219
f 75/219/219 78/218/218 76/220/220
f 78/221/221 79/222/222 76/223/223
f 76/223/223 79/222/222 73/224/224
f 79/225/225 80/226/226 73/227/227
f 73/227/227 80/226/226 74/228/228
f 80/229/229 77/230/230 74/231/231
f 74/231/231 77/230/230 75/232/232
usemtl Glass_-_Frosted_Medium
f 80/233/233 79/234/234 77/235/235
f 77/235/235 79/234/234 78/236/236
f 65/237/237 69/238/238 66/239/239
f 66/239/239 69/238/238 71/240/240

# 80 vertices
# 240 texture params
# 240 normals
# 156 facets

# 1 groups
